<?xml version="1.0" standalone="no"?><!-- Generator: Gravit.io --><svg xmlns="http://www.w3.org/2000/svg" xmlns:xlink="http://www.w3.org/1999/xlink" style="isolation:isolate" viewBox="0 0 276.907 49.441" width="276.907" height="49.441"><g id="null"><g id="Layer_1"><g id="null"><path d=" M 270.627 35.186 L 269.331 35.186 L 269.331 34.688 L 272.322 34.688 L 272.322 35.186 L 271.026 35.186 L 271.026 38.576 L 270.527 38.576 L 270.527 35.186 L 270.627 35.186 Z " fill="rgb(151,156,158)"/><path d=" M 272.92 34.688 L 273.717 34.688 L 274.913 37.579 L 274.913 37.579 L 276.109 34.688 L 276.907 34.688 L 276.907 38.576 L 276.408 38.576 L 276.408 35.386 L 276.408 35.386 L 275.113 38.576 L 274.714 38.576 L 273.418 35.386 L 273.418 35.386 L 273.418 38.576 L 272.92 38.576 L 272.92 34.688 Z " fill="rgb(151,156,158)"/></g><g id="null"><path d=" M 122.505 25.916 C 122.505 27.212 122.305 28.309 121.807 29.405 C 121.309 30.502 120.711 31.399 119.814 32.296 C 119.415 32.695 118.916 33.093 118.518 33.392 C 118.019 33.691 117.521 33.99 117.023 34.19 C 115.826 34.688 114.73 34.887 113.534 34.887 C 112.338 34.887 111.141 34.688 110.045 34.19 C 109.447 33.99 108.949 33.691 108.55 33.392 C 108.051 33.093 107.653 32.695 107.254 32.296 C 106.855 31.897 106.556 31.598 106.257 31.199 C 105.958 30.801 105.659 30.402 105.46 29.904 C 105.061 30.801 104.463 31.598 103.765 32.296 C 103.367 32.695 102.868 33.093 102.469 33.392 C 101.971 33.691 101.473 33.99 100.974 34.19 C 99.778 34.688 98.582 34.887 97.486 34.887 C 96.289 34.887 95.093 34.688 93.897 34.19 C 93.299 33.99 92.801 33.691 92.402 33.392 C 91.904 33.093 91.505 32.695 91.106 32.296 C 90.209 31.498 89.611 30.502 89.212 29.405 C 88.714 28.209 88.514 27.013 88.514 25.817 L 88.514 16.746 L 90.408 16.746 L 90.408 26.016 C 90.408 27.013 90.608 27.91 90.907 28.807 C 91.106 29.206 91.305 29.605 91.605 30.003 C 91.904 30.402 92.103 30.801 92.502 31.1 C 93.199 31.698 93.897 32.196 94.794 32.595 C 95.592 32.994 96.588 33.193 97.585 33.193 C 98.582 33.193 99.479 32.994 100.376 32.595 C 101.273 32.196 101.971 31.698 102.669 31.1 C 103.367 30.402 103.865 29.605 104.264 28.807 C 104.662 28.01 104.862 27.013 104.862 26.016 L 104.862 16.945 L 106.756 16.945 L 106.756 26.016 C 106.756 27.013 106.955 27.91 107.254 28.807 C 107.453 29.206 107.653 29.605 107.952 30.003 C 108.251 30.402 108.55 30.801 108.849 31.1 C 109.547 31.797 110.344 32.296 111.141 32.595 C 112.039 32.994 112.936 33.193 113.932 33.193 C 114.929 33.193 115.826 32.994 116.723 32.595 C 117.621 32.196 118.418 31.698 119.016 31.1 C 119.714 30.402 120.212 29.605 120.511 28.807 C 120.91 28.01 121.109 27.013 121.109 26.016 L 121.109 16.945 L 123.003 16.945 L 123.003 25.916 L 122.505 25.916 Z " fill="rgb(151,156,158)"/><path d=" M 127.09 13.257 C 126.891 13.257 126.592 13.158 126.492 12.958 C 126.293 12.759 126.193 12.559 126.193 12.36 C 126.193 12.061 126.293 11.862 126.492 11.662 C 126.691 11.463 126.891 11.363 127.09 11.363 C 127.389 11.363 127.588 11.463 127.788 11.662 C 127.987 11.862 128.087 12.061 128.087 12.36 C 128.087 12.559 127.987 12.859 127.788 12.958 C 127.588 13.158 127.289 13.257 127.09 13.257 Z  M 127.987 16.846 L 127.987 34.987 L 126.093 34.987 L 126.093 16.846 L 127.987 16.846 Z " fill="rgb(255,198,16)"/><path d=" M 134.965 34.987 L 135.064 18.74 L 131.675 18.74 L 131.675 16.846 L 135.064 16.846 L 135.064 8.772 L 136.958 8.772 L 136.958 16.846 L 140.547 16.846 L 140.547 18.74 L 136.958 18.74 L 136.859 34.987 L 134.965 34.987 Z " fill="rgb(255,198,16)"/><path d=" M 154.502 32.595 C 155.399 32.196 156.196 31.698 156.794 31 L 158.09 32.296 C 157.691 32.695 157.193 33.093 156.794 33.392 C 156.296 33.691 155.797 33.99 155.299 34.19 C 154.103 34.688 153.006 34.887 151.81 34.887 C 150.614 34.887 149.418 34.688 148.222 34.19 C 147.723 33.99 147.225 33.691 146.727 33.392 C 146.228 33.093 145.83 32.695 145.331 32.296 C 144.932 31.897 144.534 31.399 144.235 31 C 143.936 30.502 143.637 30.003 143.338 29.505 C 142.839 28.408 142.64 27.212 142.64 25.916 C 142.64 24.621 142.839 23.424 143.338 22.328 C 143.836 21.331 144.434 20.334 145.331 19.537 C 146.228 18.64 147.125 18.042 148.222 17.543 C 149.418 17.045 150.614 16.846 151.81 16.846 C 153.006 16.846 154.203 17.045 155.299 17.543 C 156.395 18.042 157.293 18.64 158.19 19.537 L 156.894 20.833 C 156.296 20.235 155.598 19.637 154.601 19.238 C 153.704 18.839 152.707 18.74 151.81 18.74 C 150.814 18.74 149.916 18.939 149.019 19.238 C 148.621 19.437 148.222 19.637 147.823 19.936 C 147.424 20.235 147.125 20.534 146.727 20.833 C 146.428 21.132 146.129 21.531 145.83 21.929 C 145.531 22.328 145.331 22.727 145.132 23.125 C 144.733 24.023 144.633 25.019 144.633 25.916 C 144.633 26.913 144.833 27.81 145.132 28.707 C 145.531 29.505 146.029 30.302 146.727 31 C 147.026 31.299 147.424 31.598 147.823 31.897 C 148.222 32.196 148.621 32.395 149.019 32.595 C 149.916 32.994 150.814 33.093 151.81 33.093 C 152.707 33.093 153.605 32.994 154.502 32.595 Z " fill="rgb(151,156,158)"/><path d=" M 179.92 34.987 L 178.026 34.987 L 178.026 25.916 C 178.026 25.418 177.926 24.92 177.826 24.521 C 177.727 24.023 177.627 23.624 177.428 23.125 C 177.029 22.328 176.531 21.531 175.833 20.833 C 175.135 20.135 174.437 19.637 173.54 19.238 C 173.141 19.039 172.643 18.939 172.145 18.839 C 171.646 18.74 171.148 18.74 170.749 18.74 C 170.251 18.74 169.752 18.74 169.354 18.839 C 168.855 18.939 168.357 19.039 167.958 19.238 C 167.161 19.637 166.363 20.135 165.765 20.833 C 165.068 21.531 164.569 22.228 164.17 23.125 C 163.971 23.524 163.871 23.923 163.772 24.421 C 163.672 24.82 163.572 25.318 163.572 25.717 L 163.572 34.987 L 161.678 34.987 L 161.678 25.916 L 161.678 25.717 L 161.678 8.772 L 163.572 8.772 L 163.572 20.434 C 163.871 20.035 164.17 19.736 164.469 19.537 C 165.367 18.64 166.264 18.042 167.36 17.543 C 168.457 17.045 169.553 16.846 170.849 16.846 C 172.145 16.846 173.241 17.045 174.338 17.543 C 175.334 17.942 176.331 18.64 177.228 19.537 C 178.125 20.334 178.823 21.331 179.222 22.428 C 179.621 23.424 179.92 24.621 179.92 25.916 L 179.92 25.916 L 179.92 34.987 Z " fill="rgb(151,156,158)"/><path d=" M 187.096 34.987 L 187.196 10.666 L 180.418 10.666 L 180.418 8.772 L 187.196 8.772 L 187.096 8.772 L 188.99 8.772 L 189.09 8.772 L 195.768 8.772 L 195.768 10.666 L 189.09 10.666 L 188.99 34.987 L 187.096 34.987 Z " fill="rgb(151,156,158)"/><path d=" M 217.997 34.987 L 216.103 34.987 L 216.103 25.916 C 216.103 25.418 216.003 24.92 215.904 24.521 C 215.804 24.023 215.704 23.624 215.505 23.125 C 215.106 22.328 214.608 21.531 213.91 20.833 C 213.212 20.135 212.514 19.637 211.617 19.238 C 211.219 19.039 210.72 18.939 210.222 18.839 C 209.723 18.74 209.225 18.74 208.826 18.74 C 208.328 18.74 207.83 18.74 207.431 18.839 C 206.932 18.939 206.434 19.039 206.035 19.238 C 205.238 19.637 204.441 20.135 203.842 20.833 C 203.145 21.531 202.646 22.228 202.248 23.125 C 202.048 23.524 201.949 23.923 201.849 24.421 C 201.749 24.82 201.65 25.318 201.65 25.717 L 201.65 34.987 L 199.756 34.987 L 199.756 25.916 L 199.756 25.717 L 199.756 8.772 L 201.65 8.772 L 201.65 20.434 C 201.949 20.035 202.248 19.736 202.547 19.537 C 203.444 18.64 204.341 18.042 205.437 17.543 C 206.534 17.045 207.63 16.846 208.926 16.846 C 210.222 16.846 211.318 17.045 212.415 17.543 C 213.412 17.942 214.408 18.64 215.305 19.537 C 216.203 20.334 216.9 21.331 217.299 22.428 C 217.698 23.424 217.997 24.621 217.997 25.916 L 217.997 25.916 L 217.997 34.987 Z " fill="rgb(151,156,158)"/><path d=" M 222.582 13.257 C 222.383 13.257 222.084 13.158 221.984 12.958 C 221.785 12.759 221.685 12.559 221.685 12.36 C 221.685 12.061 221.785 11.862 221.984 11.662 C 222.183 11.463 222.383 11.363 222.582 11.363 C 222.881 11.363 223.08 11.463 223.28 11.662 C 223.479 11.862 223.579 12.061 223.579 12.36 C 223.579 12.559 223.479 12.859 223.28 12.958 C 223.08 13.158 222.781 13.257 222.582 13.257 Z  M 223.479 16.846 L 223.479 34.987 L 221.585 34.987 L 221.585 16.846 L 223.479 16.846 Z " fill="rgb(151,156,158)"/><path d=" M 245.209 34.987 L 243.315 34.987 L 243.315 25.916 C 243.315 25.019 243.116 24.023 242.717 23.125 C 242.518 22.727 242.318 22.328 242.019 21.929 C 241.72 21.531 241.421 21.132 241.122 20.833 C 240.424 20.135 239.627 19.637 238.83 19.238 C 237.932 18.839 237.035 18.74 236.039 18.74 C 235.042 18.74 234.045 18.939 233.248 19.238 C 232.35 19.637 231.553 20.135 230.955 20.833 C 230.257 21.431 229.759 22.228 229.36 23.125 C 229.161 23.524 229.061 23.923 228.961 24.421 C 228.862 24.82 228.762 25.318 228.762 25.717 L 228.762 34.987 L 226.868 34.987 L 226.868 25.916 L 226.868 25.717 L 226.868 16.846 L 228.762 16.846 L 228.762 20.434 C 228.862 20.235 229.061 20.135 229.161 19.936 C 229.26 19.836 229.46 19.637 229.559 19.537 C 229.958 19.138 230.457 18.74 230.955 18.441 C 231.453 18.141 231.952 17.842 232.45 17.643 C 233.646 17.145 234.743 16.945 235.939 16.945 C 237.135 16.945 238.232 17.145 239.428 17.643 C 240.026 17.842 240.524 18.141 240.923 18.441 C 241.421 18.74 241.82 19.138 242.318 19.537 C 243.116 20.334 243.714 21.331 244.212 22.428 C 244.511 23.026 244.611 23.524 244.711 24.122 C 244.81 24.72 244.91 25.318 244.91 25.916 L 244.91 25.916 L 244.91 34.987 L 245.209 34.987 Z " fill="rgb(151,156,158)"/><path d=" M 266.241 31.498 C 266.74 32.595 266.939 33.791 266.939 34.987 L 265.045 34.987 C 265.045 33.99 264.846 32.994 264.447 32.196 C 264.048 31.299 263.55 30.601 262.952 29.904 C 262.653 29.605 262.254 29.305 261.855 29.006 C 261.457 28.807 261.058 28.508 260.659 28.309 C 260.161 28.109 259.762 27.91 259.264 27.81 C 258.765 27.711 258.267 27.711 257.868 27.711 C 257.37 27.711 256.871 27.711 256.373 27.81 C 255.875 27.91 255.476 28.01 254.977 28.309 C 254.579 28.508 254.18 28.707 253.781 29.006 C 253.383 29.206 253.084 29.505 252.685 29.904 C 251.987 30.502 251.489 31.299 251.09 32.196 C 250.791 32.994 250.592 33.891 250.492 34.887 L 250.492 34.987 L 248.598 34.987 L 248.598 34.788 L 248.598 16.846 L 250.492 16.846 L 250.492 28.408 L 265.244 16.846 L 266.441 18.341 L 256.572 26.016 C 256.772 26.016 256.971 26.016 257.17 25.916 C 257.37 25.916 257.569 25.916 257.768 25.916 C 258.965 25.916 260.161 26.116 261.257 26.614 C 261.756 26.814 262.254 27.113 262.752 27.412 C 263.251 27.711 263.65 28.109 264.048 28.508 C 264.447 28.907 264.846 29.405 265.145 29.804 C 265.743 30.402 266.042 30.9 266.241 31.498 Z " fill="rgb(151,156,158)"/><path d=" M 252.785 34.987 C 252.785 32.071 255.152 29.704 258.068 29.704 C 260.983 29.704 263.35 32.071 263.35 34.987 C 263.35 37.903 260.983 40.27 258.068 40.27 C 255.152 40.27 252.785 37.903 252.785 34.987 Z " fill="rgb(255,198,16)"/><g id="null"><path d=" M 155.698 47.347 C 155.897 47.646 156.196 47.846 156.395 48.045 C 156.695 48.244 156.994 48.244 157.392 48.244 C 157.592 48.244 157.691 48.244 157.891 48.145 C 158.09 48.145 158.19 48.045 158.389 47.945 C 158.489 47.846 158.688 47.746 158.688 47.646 C 158.788 47.547 158.788 47.347 158.788 47.148 C 158.788 46.949 158.788 46.849 158.688 46.749 C 158.588 46.65 158.489 46.55 158.389 46.45 C 158.289 46.35 158.09 46.35 157.891 46.251 C 157.691 46.251 157.592 46.151 157.392 46.151 C 157.093 46.051 156.794 46.051 156.495 45.952 C 156.196 45.852 155.997 45.752 155.797 45.653 C 155.598 45.553 155.399 45.354 155.299 45.154 C 155.199 44.955 155.1 44.656 155.1 44.357 C 155.1 44.058 155.199 43.759 155.299 43.46 C 155.399 43.26 155.598 43.061 155.897 42.862 C 156.096 42.662 156.395 42.563 156.695 42.463 C 156.994 42.363 157.293 42.363 157.592 42.363 C 158.09 42.363 158.489 42.463 158.887 42.662 C 159.286 42.862 159.585 43.161 159.785 43.559 L 158.887 44.158 C 158.788 43.958 158.588 43.759 158.289 43.559 C 158.09 43.46 157.791 43.36 157.492 43.36 C 157.293 43.36 157.193 43.36 156.994 43.46 C 156.794 43.46 156.695 43.559 156.595 43.659 C 156.495 43.759 156.395 43.859 156.296 43.958 C 156.196 44.058 156.196 44.257 156.196 44.357 C 156.196 44.457 156.196 44.656 156.296 44.756 C 156.395 44.855 156.495 44.955 156.695 45.055 C 156.894 45.154 156.994 45.154 157.193 45.254 C 157.392 45.354 157.592 45.354 157.791 45.354 C 158.09 45.453 158.389 45.453 158.588 45.553 C 158.887 45.653 159.087 45.752 159.286 45.952 C 159.486 46.151 159.685 46.251 159.785 46.55 C 159.884 46.749 159.984 47.048 159.984 47.347 C 159.984 47.746 159.884 48.045 159.785 48.344 C 159.585 48.643 159.386 48.842 159.186 48.942 C 158.887 49.141 158.688 49.241 158.289 49.341 C 157.99 49.441 157.691 49.441 157.293 49.441 C 156.695 49.441 156.196 49.341 155.797 49.141 C 155.399 48.942 155 48.643 154.701 48.145 L 155.698 47.347 Z " fill="rgb(164,204,57)"/><path d=" M 165.466 45.752 C 165.466 45.254 165.566 44.756 165.765 44.357 C 165.965 43.958 166.164 43.559 166.463 43.26 C 166.762 42.961 167.161 42.762 167.559 42.563 C 167.958 42.363 168.457 42.264 168.955 42.264 C 169.453 42.264 169.952 42.363 170.35 42.563 C 170.749 42.762 171.148 42.961 171.447 43.26 C 171.746 43.559 172.045 43.958 172.145 44.357 C 172.344 44.756 172.444 45.254 172.444 45.752 C 172.444 46.251 172.344 46.749 172.145 47.148 C 171.945 47.547 171.746 47.945 171.447 48.244 C 171.148 48.543 170.749 48.743 170.35 48.942 C 169.952 49.141 169.453 49.241 168.955 49.241 C 168.457 49.241 167.958 49.141 167.559 48.942 C 167.161 48.743 166.762 48.543 166.463 48.244 C 166.164 47.945 165.865 47.547 165.765 47.148 C 165.466 46.749 165.466 46.251 165.466 45.752 Z  M 166.563 45.752 C 166.563 46.151 166.662 46.45 166.762 46.749 C 166.862 47.048 167.061 47.347 167.26 47.547 C 167.46 47.746 167.759 47.945 167.958 48.045 C 168.257 48.145 168.556 48.244 168.955 48.244 C 169.354 48.244 169.653 48.145 169.952 48.045 C 170.251 47.945 170.45 47.746 170.65 47.547 C 170.849 47.347 171.048 47.048 171.148 46.749 C 171.248 46.45 171.347 46.151 171.347 45.752 C 171.347 45.354 171.248 45.055 171.148 44.756 C 171.048 44.457 170.849 44.158 170.65 43.958 C 170.45 43.759 170.151 43.559 169.952 43.46 C 169.653 43.36 169.354 43.26 168.955 43.26 C 168.556 43.26 168.257 43.36 167.958 43.46 C 167.659 43.559 167.46 43.759 167.26 43.958 C 167.061 44.158 166.862 44.457 166.762 44.756 C 166.662 45.055 166.563 45.354 166.563 45.752 Z " fill="rgb(164,204,57)"/><path d=" M 178.524 38.376 L 179.621 38.376 L 179.621 49.042 L 178.524 49.042 L 178.524 38.376 Z " fill="rgb(164,204,57)"/><path d=" M 191.881 47.447 C 191.881 47.746 191.881 48.045 191.881 48.344 C 191.881 48.643 191.881 48.842 191.881 49.042 L 190.785 49.042 C 190.785 48.842 190.785 48.643 190.785 48.543 C 190.785 48.344 190.785 48.145 190.785 47.945 L 190.785 47.945 C 190.685 48.145 190.585 48.244 190.486 48.444 C 190.386 48.643 190.186 48.743 189.987 48.842 C 189.788 48.942 189.588 49.042 189.389 49.141 C 189.19 49.241 188.891 49.241 188.592 49.241 C 188.193 49.241 187.794 49.141 187.495 49.042 C 187.196 48.942 186.897 48.743 186.698 48.444 C 186.498 48.244 186.299 47.945 186.199 47.547 C 186.1 47.248 186.1 46.849 186.1 46.45 L 186.1 42.363 L 187.196 42.363 L 187.196 46.35 C 187.196 46.949 187.296 47.347 187.595 47.646 C 187.894 47.945 188.193 48.145 188.791 48.145 C 189.19 48.145 189.489 48.045 189.688 47.945 C 189.987 47.846 190.186 47.646 190.286 47.447 C 190.486 47.248 190.585 46.949 190.685 46.65 C 190.785 46.35 190.785 45.952 190.785 45.653 L 190.785 42.463 L 191.881 42.463 L 191.881 47.447 L 191.881 47.447 Z " fill="rgb(164,204,57)"/><path d=" M 201.849 43.36 L 199.855 43.36 L 199.855 46.65 C 199.855 46.849 199.855 47.048 199.855 47.248 C 199.855 47.447 199.855 47.547 199.955 47.746 C 200.055 47.846 200.154 47.945 200.254 48.045 C 200.354 48.145 200.553 48.145 200.852 48.145 C 201.051 48.145 201.151 48.145 201.35 48.045 C 201.55 48.045 201.65 47.945 201.849 47.846 L 201.849 48.842 C 201.65 48.942 201.45 48.942 201.251 49.042 C 201.051 49.042 200.752 49.141 200.553 49.141 C 200.154 49.141 199.855 49.042 199.556 48.942 C 199.357 48.842 199.158 48.643 198.958 48.543 C 198.859 48.344 198.759 48.145 198.659 47.846 C 198.659 47.547 198.559 47.248 198.559 46.949 L 198.559 43.26 L 197.164 43.26 L 197.164 42.363 L 198.559 42.363 L 198.559 40.469 L 199.656 40.469 L 199.656 42.363 L 201.65 42.363 L 201.65 43.36 L 201.849 43.36 Z " fill="rgb(164,204,57)"/><path d=" M 207.331 39.871 C 207.331 39.672 207.431 39.473 207.531 39.273 C 207.73 39.074 207.83 39.074 208.129 39.074 C 208.428 39.074 208.527 39.174 208.727 39.273 C 208.926 39.473 208.926 39.672 208.926 39.871 C 208.926 40.071 208.826 40.27 208.727 40.469 C 208.527 40.669 208.428 40.669 208.129 40.669 C 207.929 40.669 207.73 40.569 207.531 40.469 C 207.431 40.27 207.331 40.071 207.331 39.871 Z  M 207.63 42.463 L 208.727 42.463 L 208.727 49.141 L 207.63 49.141 L 207.63 42.463 Z " fill="rgb(164,204,57)"/><path d=" M 214.807 45.752 C 214.807 45.254 214.907 44.756 215.106 44.357 C 215.305 43.958 215.505 43.559 215.804 43.26 C 216.103 42.961 216.502 42.762 216.9 42.563 C 217.299 42.363 217.797 42.264 218.296 42.264 C 218.794 42.264 219.293 42.363 219.691 42.563 C 220.09 42.762 220.489 42.961 220.788 43.26 C 221.087 43.559 221.386 43.958 221.486 44.357 C 221.685 44.756 221.785 45.254 221.785 45.752 C 221.785 46.251 221.685 46.749 221.486 47.148 C 221.286 47.547 221.087 47.945 220.788 48.244 C 220.489 48.543 220.09 48.743 219.691 48.942 C 219.293 49.141 218.794 49.241 218.296 49.241 C 217.797 49.241 217.299 49.141 216.9 48.942 C 216.502 48.743 216.103 48.543 215.804 48.244 C 215.505 47.945 215.206 47.547 215.106 47.148 C 214.807 46.749 214.807 46.251 214.807 45.752 Z  M 216.003 45.752 C 216.003 46.151 216.103 46.45 216.203 46.749 C 216.302 47.048 216.502 47.347 216.701 47.547 C 216.9 47.746 217.199 47.945 217.399 48.045 C 217.698 48.145 217.997 48.244 218.395 48.244 C 218.794 48.244 219.093 48.145 219.392 48.045 C 219.691 47.945 219.891 47.746 220.09 47.547 C 220.289 47.347 220.489 47.048 220.588 46.749 C 220.688 46.45 220.788 46.151 220.788 45.752 C 220.788 45.354 220.688 45.055 220.588 44.756 C 220.489 44.457 220.289 44.158 220.09 43.958 C 219.891 43.759 219.592 43.559 219.392 43.46 C 219.093 43.36 218.794 43.26 218.395 43.26 C 217.997 43.26 217.698 43.36 217.399 43.46 C 217.1 43.559 216.9 43.759 216.701 43.958 C 216.502 44.158 216.302 44.457 216.203 44.756 C 216.003 45.055 216.003 45.354 216.003 45.752 Z " fill="rgb(164,204,57)"/><path d=" M 227.765 43.958 C 227.765 43.659 227.765 43.36 227.765 43.061 C 227.765 42.762 227.765 42.563 227.765 42.363 L 228.862 42.363 C 228.862 42.563 228.862 42.762 228.862 42.862 C 228.862 43.061 228.862 43.26 228.862 43.46 L 228.862 43.46 C 228.961 43.26 229.061 43.161 229.161 42.961 C 229.26 42.762 229.46 42.662 229.659 42.563 C 229.859 42.463 230.058 42.363 230.257 42.264 C 230.457 42.164 230.756 42.164 231.055 42.164 C 231.453 42.164 231.852 42.264 232.151 42.363 C 232.45 42.463 232.749 42.662 232.949 42.961 C 233.148 43.161 233.347 43.46 233.447 43.859 C 233.547 44.158 233.547 44.556 233.547 44.955 L 233.547 49.042 L 232.45 49.042 L 232.45 45.055 C 232.45 44.457 232.35 44.058 232.051 43.759 C 231.852 43.46 231.453 43.26 230.855 43.26 C 230.457 43.26 230.158 43.36 229.958 43.46 C 229.659 43.559 229.46 43.759 229.36 43.958 C 229.161 44.158 229.061 44.457 228.961 44.756 C 228.862 45.055 228.862 45.453 228.862 45.752 L 228.862 48.942 L 227.765 48.942 L 227.765 43.958 L 227.765 43.958 Z " fill="rgb(164,204,57)"/><path d=" M 240.125 47.347 C 240.325 47.646 240.624 47.846 240.823 48.045 C 241.122 48.244 241.421 48.244 241.82 48.244 C 242.019 48.244 242.119 48.244 242.318 48.145 C 242.518 48.145 242.617 48.045 242.817 47.945 C 242.916 47.846 243.116 47.746 243.116 47.646 C 243.215 47.547 243.215 47.347 243.215 47.148 C 243.215 46.949 243.215 46.849 243.116 46.749 C 243.016 46.65 242.916 46.55 242.817 46.45 C 242.717 46.35 242.518 46.35 242.318 46.251 C 242.119 46.251 242.019 46.151 241.82 46.151 C 241.521 46.051 241.222 46.051 240.923 45.952 C 240.624 45.852 240.424 45.752 240.225 45.653 C 240.026 45.553 239.826 45.354 239.727 45.154 C 239.627 44.955 239.527 44.656 239.527 44.357 C 239.527 44.058 239.627 43.759 239.727 43.46 C 239.826 43.26 240.026 43.061 240.325 42.862 C 240.524 42.662 240.823 42.563 241.122 42.463 C 241.421 42.363 241.72 42.363 242.019 42.363 C 242.518 42.363 242.916 42.463 243.315 42.662 C 243.714 42.862 244.013 43.161 244.212 43.559 L 243.315 44.158 C 243.215 43.958 243.016 43.759 242.717 43.559 C 242.518 43.46 242.219 43.36 241.92 43.36 C 241.72 43.36 241.621 43.36 241.421 43.46 C 241.222 43.46 241.122 43.559 241.023 43.659 C 240.923 43.759 240.823 43.859 240.723 43.958 C 240.624 44.058 240.624 44.257 240.624 44.357 C 240.624 44.457 240.624 44.656 240.723 44.756 C 240.823 44.855 240.923 44.955 241.122 45.055 C 241.322 45.154 241.421 45.154 241.621 45.254 C 241.82 45.354 242.019 45.354 242.219 45.354 C 242.518 45.453 242.817 45.453 243.016 45.553 C 243.315 45.653 243.514 45.752 243.714 45.952 C 243.913 46.151 244.113 46.251 244.212 46.55 C 244.312 46.749 244.412 47.048 244.412 47.347 C 244.412 47.746 244.312 48.045 244.212 48.344 C 244.013 48.643 243.814 48.842 243.614 48.942 C 243.315 49.141 243.116 49.241 242.717 49.341 C 242.418 49.441 242.119 49.441 241.72 49.441 C 241.122 49.441 240.624 49.341 240.225 49.141 C 239.826 48.942 239.428 48.643 239.129 48.145 L 240.125 47.347 Z " fill="rgb(164,204,57)"/></g><path d=" M 58.81 20.235 C 59.209 14.055 64.492 9.17 70.672 9.17 C 75.058 9.17 79.045 11.563 81.138 15.35 L 82.035 14.852 L 82.434 14.653 L 82.434 14.653 L 82.932 14.354 C 80.54 9.868 75.855 7.177 70.772 7.177 C 63.296 7.177 57.016 13.257 56.916 20.733 L 56.916 22.228 L 82.633 22.228 C 82.035 28.209 76.852 32.994 70.772 32.994 C 65.987 32.994 61.601 30.003 59.707 25.617 L 59.209 25.817 C 59.209 25.817 59.209 25.817 59.209 25.817 L 58.711 26.016 L 57.814 26.415 C 60.006 31.498 65.19 34.987 70.672 34.987 C 78.347 34.987 84.527 28.707 84.527 21.132 L 84.527 20.334 L 58.81 20.235 Z " fill="rgb(151,156,158)"/></g><path d=" M 23.125 0 C 10.367 0 0 10.367 0 23.125 C 0 35.884 10.367 46.35 23.125 46.35 C 35.884 46.35 46.251 35.984 46.251 23.225 C 46.251 10.466 35.884 0 23.125 0 Z  M 38.576 23.225 C 38.576 31.698 31.698 38.675 23.125 38.675 C 17.145 38.675 11.662 35.087 9.17 29.804 L 10.965 29.006 C 13.158 33.592 17.942 36.682 23.125 36.682 C 30.003 36.682 35.984 31.199 36.582 24.322 L 7.675 24.322 L 7.675 22.826 C 7.875 14.553 14.752 7.775 23.125 7.775 C 29.206 7.775 34.588 11.264 37.08 16.646 L 35.286 17.444 C 33.093 12.759 28.408 9.768 23.125 9.768 C 16.048 9.768 10.068 15.45 9.669 22.428 L 38.576 22.428 L 38.576 23.225 Z  M 22.228 25.418 L 24.222 25.418 L 24.222 33.99 L 22.228 33.99 L 22.228 25.418 Z  M 24.222 21.331 L 22.228 21.331 L 22.228 16.846 L 16.248 16.846 L 16.248 14.852 L 30.103 14.852 L 30.103 16.846 L 24.222 16.846 L 24.222 21.331 Z " fill="rgb(164,204,57)"/></g></g></svg>